<svg xmlns="http://www.w3.org/2000/svg" xmlns:xlink="http://www.w3.org/1999/xlink" xml:space="preserve" version="1.1" shape-rendering="geometricPrecision" text-rendering="geometricPrecision" image-rendering="optimizeQuality" fill-rule="evenodd" clip-rule="evenodd" viewBox="0 0 10000000 12500000" x="0px" y="0px"><g><path fill="black" d="M8757825 2757896l0 625044c0,170907 -141615,312522 -312522,312522l-6875015 0c-170907,0 -312522,-141615 -312522,-312522l0 -625044c0,-170907 141615,-312522 312522,-312522l6875015 118c170907,0 312522,141615 312522,312522l0 -118z"/><path fill="black" d="M8757707 4735077l0 625044c0,170907 -141616,312522 -312522,312522l-6875015 0c-170907,0 -312522,-141615 -312522,-312522l0 -625044c0,-170907 141615,-312522 312522,-312522l6875015 0c170906,0 312522,141615 312522,312522z"/><path fill="black" d="M8742116 6617060l0 625044c0,170907 -141615,312522 -312522,312522l-6875015 -118c-170907,0 -312522,-141615 -312522,-312522l0 -625044c0,-170907 141615,-312522 312522,-312522l6875015 118c170907,0 312522,141615 312522,312522z"/></g><text x="0" y="10000015" fill="#000000" font-size="5px" font-weight="bold" font-family="'Helvetica Neue', Helvetica, Arial-Unicode, Arial, Sans-serif">Created by Faim desainer</text><text x="0" y="10000020" fill="#000000" font-size="5px" font-weight="bold" font-family="'Helvetica Neue', Helvetica, Arial-Unicode, Arial, Sans-serif">from the Noun Project</text></svg>